<svg xmlns="http://www.w3.org/2000/svg" viewBox="0 0 32 32">
  <defs>
    <linearGradient id="grad" x1="0%" y1="0%" x2="100%" y2="100%">
      <stop offset="0%" style="stop-color:#0f4c75;stop-opacity:1" />
      <stop offset="100%" style="stop-color:#00d4ff;stop-opacity:1" />
    </linearGradient>
  </defs>

  <!-- Hexagon shape (engineering/structure) -->
  <path d="M16 2 L28 9 L28 23 L16 30 L4 23 L4 9 Z" fill="url(#grad)" stroke="#1a1a2e" stroke-width="1"/>

  <!-- MVX text in center -->
  <g fill="#ffffff">
    <!-- M -->
    <path d="M6 19V13h1.5l1.5 3 1.5-3H12v6h-1.2v-4L9.5 17h-0.8L7.2 15v4z"/>
    <!-- V -->
    <path d="M13 13h1.2l1.3 4 1.3-4H18l-2 6h-1z"/>
    <!-- X -->
    <path d="M19 13h1.5l1.5 2.5L23.5 13H25l-2.3 3L25 19h-1.5L22 16.5L20.5 19H19l2.3-3z"/>
  </g>
</svg>